<?xml version="1.0" standalone="no"?>
<svg xmlns:xlink="http://www.w3.org/1999/xlink" id="wave" style="transform:rotate(180deg); transition: 0.3s" viewBox="0 0 1440 210" version="1.1" xmlns="http://www.w3.org/2000/svg"><defs><linearGradient id="sw-gradient-0" x1="0" x2="0" y1="1" y2="0"><stop stop-color="rgba(116, 190, 66, 1)" offset="0%"/><stop stop-color="rgba(116, 190, 66, 1)" offset="100%"/></linearGradient></defs><path style="transform:translate(0, 0px); opacity:1" fill="url(#sw-gradient-0)" d="M0,84L34.3,77C68.6,70,137,56,206,59.5C274.3,63,343,84,411,108.5C480,133,549,161,617,143.5C685.7,126,754,63,823,63C891.4,63,960,126,1029,133C1097.1,140,1166,91,1234,73.5C1302.9,56,1371,70,1440,84C1508.6,98,1577,112,1646,126C1714.3,140,1783,154,1851,150.5C1920,147,1989,126,2057,119C2125.7,112,2194,119,2263,115.5C2331.4,112,2400,98,2469,101.5C2537.1,105,2606,126,2674,136.5C2742.9,147,2811,147,2880,154C2948.6,161,3017,175,3086,175C3154.3,175,3223,161,3291,136.5C3360,112,3429,77,3497,56C3565.7,35,3634,28,3703,35C3771.4,42,3840,63,3909,66.5C3977.1,70,4046,56,4114,66.5C4182.9,77,4251,112,4320,108.5C4388.6,105,4457,63,4526,38.5C4594.3,14,4663,7,4731,14C4800,21,4869,42,4903,52.5L4937.1,63L4937.1,210L4902.9,210C4868.6,210,4800,210,4731,210C4662.9,210,4594,210,4526,210C4457.1,210,4389,210,4320,210C4251.4,210,4183,210,4114,210C4045.7,210,3977,210,3909,210C3840,210,3771,210,3703,210C3634.3,210,3566,210,3497,210C3428.6,210,3360,210,3291,210C3222.9,210,3154,210,3086,210C3017.1,210,2949,210,2880,210C2811.4,210,2743,210,2674,210C2605.7,210,2537,210,2469,210C2400,210,2331,210,2263,210C2194.3,210,2126,210,2057,210C1988.6,210,1920,210,1851,210C1782.9,210,1714,210,1646,210C1577.1,210,1509,210,1440,210C1371.4,210,1303,210,1234,210C1165.7,210,1097,210,1029,210C960,210,891,210,823,210C754.3,210,686,210,617,210C548.6,210,480,210,411,210C342.9,210,274,210,206,210C137.1,210,69,210,34,210L0,210Z"/></svg>